<svg fill="currentColor" viewBox="0 0 512 512" xmlns="http://www.w3.org/2000/svg"><path stroke-width=".378" d="M16 56v400h480V56H16zm20 20h440v360H36V76z" /><path id="fish" d="m 353.4,190.7 c -3.6,-36.6 20.8,-54.1 -24.2,-16.9 -2.6,-2 -4.8,-3.6 -7.5,-4.8 1.3,-6.8 10.6,-12.4 5.5,-16.4 -0.5,-0.3 -7.6,-3 -16.9,-5.8 -12.3,-3.5 -22.2,-5.6 -29.5,-5.1 -6.5,2.7 -12.5,15.1 -13.3,21.5 -11,2.6 -28.8,13.6 -29.3,22.9 3.3,12.8 15.5,18.8 26.2,22.2 3.2,9.4 12.3,12.4 20.5,11.1 2.7,-1.6 1.6,-5.2 1.2,-7.3 16.3,-1.6 31.5,-4.7 43.4,-13.9 l 31,24.2 C 370,225 355,195 353.4,190.7 Z" /><use href="#fish" x="-160" y="-36" /><use href="#fish" x="-90" y="80" /><use href="#fish" x="38" y="162" /><use href="#fish" x="16" y="205" transform="scale (-1, 1)" transform-origin="center" /></svg>
